<svg version="1.1" id="katman_1" xmlns="http://www.w3.org/2000/svg" x="0" y="0" viewBox="0 0 64 64" xml:space="preserve"><style>.st0{fill:#b69134}</style><g id="outline"><path class="st0" d="M3 22h31v-2h-1v-7c0-1.7 1.3-3 3-3h2c1.7 0 3 1.3 3 3v3h2v-3c0-1.7 1.3-3 3-3h2c1.7 0 3 1.3 3 3v7h-1v2h11c.6 0 1-.4 1-1V3c0-.6-.4-1-1-1H3c-.6 0-1 .4-1 1v18c0 .6.4 1 1 1zm10-9c0-1.7 1.3-3 3-3h2c1.7 0 3 1.3 3 3v7h-8v-7zm10 0c0-1.7 1.3-3 3-3h2c1.7 0 3 1.3 3 3v7h-8v-7zm37 7h-7v-7.5c0-1.4 1.1-2.5 2.5-2.5h2c1.4 0 2.5 1.1 2.5 2.5V20zm0-16v4.8c-.7-.5-1.6-.8-2.5-.8h-2c-1.4 0-2.8.7-3.6 1.9C50.9 8.7 49.5 8 48 8h-2c-1.6 0-3.1.8-4 2-.9-1.3-2.4-2-4-2h-2c-1.6 0-3.1.8-4 2-.9-1.3-2.4-2-4-2h-2c-1.6 0-3.1.8-4 2-.9-1.3-2.4-2-4-2h-2c-1.5 0-2.9.7-3.9 1.9C11.3 8.7 9.9 8 8.5 8h-2c-.9 0-1.8.3-2.5.8V4h56zM4 12.5C4 11.1 5.1 10 6.5 10h2c1.4 0 2.5 1.1 2.5 2.5V20H4v-7.5zM3 62h49v-2H4v-4.8c.7.5 1.6.8 2.5.8h2c1.4 0 2.8-.7 3.6-1.9.9 1.2 2.4 1.9 3.9 1.9h2c1.6 0 3.1-.8 4-2 .9 1.3 2.4 2 4 2h2c1.6 0 3.1-.8 4-2 .9 1.3 2.4 2 4 2h2c1.6 0 3.1-.8 4-2 .9 1.3 2.4 2 4 2h2c.9 0 1.7-.2 2.5-.7l-1-1.7c-.5.3-1 .4-1.5.4h-2c-1.7 0-3-1.3-3-3v-7h2v-2H3c-.6 0-1 .4-1 1v18c0 .6.4 1 1 1zm38-11c0 1.7-1.3 3-3 3h-2c-1.7 0-3-1.3-3-3v-7h8v7zm-10 0c0 1.7-1.3 3-3 3h-2c-1.7 0-3-1.3-3-3v-7h8v7zm-10 0c0 1.7-1.3 3-3 3h-2c-1.7 0-3-1.3-3-3v-7h8v7zM4 44h7v7.5c0 1.4-1.1 2.5-2.5 2.5h-2C5.1 54 4 52.9 4 51.5V44z"/><path class="st0" d="M50 24h-2v-1c0-2.8-2.2-5-5-5h-2c-2.8 0-5 2.2-5 5v10c0 .6.4 1 1 1h6.3L55 61.4l1.8-.8L45.5 34H47c.5 0 .9-.4 1-.8l12.1 24 1.8-.9-14-27.7c-.2-.4-.5-.6-.9-.6h-3.4l-1-2h6.8l10.9 18.4 1.7-1-11.1-18.9c-.2-.3-.5-.5-.9-.5zm-9.9 1.4l2 4c.2.3.5.6.9.6h3v2h-8v-9c0-1.7 1.3-3 3-3h2c1.7 0 3 1.3 3 3v1h-5c-.6 0-1 .4-1 1 0 .2 0 .3.1.4z"/></g></svg>