<svg version="1.1" id="katman_1" xmlns="http://www.w3.org/2000/svg" x="0" y="0" viewBox="0 0 64 64" xml:space="preserve"><style>.st0{fill:#b69134}</style><g id="outline"><path class="st0" d="M3 20c-.6 0-1 .4-1 1v.2C4.4 34.4 15.9 44 29.4 44h5.3c13.4 0 24.9-9.6 27.3-22.8.1-.5-.3-1.1-.8-1.2H3zm31.6 22h-5.3c-8 0-15.5-3.7-20.4-10h6v3h2v-3h6v6h2v-6h6v6h2v-6h6v6h2v-6h6v3h2v-3h6c-4.8 6.3-12.3 10-20.3 10zm21.8-12H49v-5h-2v5h-6v-5h-2v5h-6v-5h-2v5h-6v-5h-2v5h-6v-5h-2v5H7.6c-1.6-2.5-2.7-5.2-3.3-8h55.5c-.7 2.8-1.8 5.5-3.4 8zM2.8 8c1.7.3 2.9 1.5 3.2 3.2.1.5.6.9 1.2.8.4-.1.7-.4.8-.8.3-1.7 1.5-2.9 3.2-3.2.5-.1.9-.6.8-1.2-.1-.4-.4-.7-.8-.8C9.5 5.7 8.3 4.5 8 2.8c-.1-.5-.6-.9-1.2-.8-.4.1-.7.4-.8.8C5.7 4.5 4.5 5.7 2.8 6c-.5.1-.9.6-.8 1.2.1.4.4.7.8.8zM7 5.6c.4.6.9 1 1.4 1.4-.5.4-1 .9-1.4 1.4-.4-.5-.9-1-1.4-1.4.5-.4 1-.9 1.4-1.4z"/><path class="st0" d="M34.7 52c10.7 0 20.4-6 25.2-15.6l-1.8-.9C53.6 44.4 44.6 50 34.7 50h-5.3c-9.9 0-19-5.6-23.4-14.4l-1.8.9C8.9 46 18.7 52 29.3 52h5.4zM3.2 18l22.5-4.9 5.6 4.7c.4.3.9.3 1.3 0l5.6-4.7L60.8 18l.4-2-23-5c-.3-.1-.6 0-.9.2L32 15.7l-5.4-4.5c-.2-.2-.5-.2-.8-.2l-23 5 .4 2z"/></g></svg>