<svg version="1.1" id="katman_1" xmlns="http://www.w3.org/2000/svg" x="0" y="0" viewBox="0 0 64 64" xml:space="preserve"><style>.st0{fill:#b69134}</style><g id="outline"><path class="st0" d="M32.1 42.6c-.1.1-.1.2-.1.3l-.1 1.1 2 .2.1-.9 1.4-2.7c1.7-3.5 2.7-7.3 2.7-11.2 0-5.1-4.2-9.3-9.3-9.3-1.3 0-2.5.3-3.7.8-3.2 1.4-6.9 1.4-10.1 0-4.7-2-10.2.2-12.2 4.9-.5 1-.8 2.2-.8 3.5 0 3.9.9 7.8 2.7 11.2L6 43.3l1.7 15.3C8 60.7 9.9 62.2 12 62c1.7-.2 3.1-1.5 3.4-3.3l2.2-14.6c.2-1.4 1.5-2.3 2.8-2.1 1.1.2 1.9 1 2.1 2.1l2.2 14.6c.3 2.1 2.3 3.5 4.4 3.2 1.7-.3 3.1-1.6 3.3-3.4l1-8.6-2-.2-1 8.6c-.1 1-1 1.7-2 1.6-.8-.1-1.5-.7-1.6-1.6l-2.2-14.6c-.4-2.4-2.7-4.1-5.1-3.8-1.9.3-3.5 1.8-3.8 3.8l-2.2 14.6c-.1 1-1.1 1.7-2.1 1.6-.8-.1-1.5-.8-1.6-1.6L8 42.9c0-.1 0-.2-.1-.3l-1.4-2.9C4.8 36.4 4 32.9 4 29.3c0-4 3.3-7.3 7.3-7.3 1 0 2 .2 2.9.6 3.7 1.6 7.9 1.6 11.7 0 3.7-1.6 8 .1 9.6 3.8.4.9.6 1.9.6 2.9 0 3.6-.8 7.1-2.4 10.4l-1.6 2.9z"/><path class="st0" d="M61 2h-5v2h4v9c0 6.1-4.9 11-11 11s-11-4.9-11-11V4h4V2h-5c-.6 0-1 .4-1 1v10c0 6.8 5.2 12.4 12 12.9V43c0 1.7-1.3 3-3 3H32c-1.7 0-3-1.3-3-3v-8.1c2.7-.6 4.5-3.2 3.9-5.9s-3.2-4.5-5.9-3.9c-2.7.6-4.5 3.2-3.9 5.9.4 2 1.9 3.5 3.9 3.9V43c0 2.8 2.2 5 5 5h13c2.8 0 5-2.2 5-5V25.9c6.8-.5 12-6.2 12-12.9V3c0-.6-.4-1-1-1zM25 30c0-1.7 1.3-3 3-3s3 1.3 3 3c0 1.3-.8 2.4-2 2.8V30h-2v2.8c-1.2-.4-2-1.5-2-2.8zm-19 .6V32h2v-1.4c0-1.9 1-3.7 2.6-4.8l-1.1-1.7C7.3 25.6 6 28 6 30.6z"/></g></svg>