<svg version="1.1" id="katman_1" xmlns="http://www.w3.org/2000/svg" x="0" y="0" viewBox="0 0 64 64" xml:space="preserve"><style>.st0{fill:#b69134}</style><g id="outline"><path class="st0" d="M40.7 2c-1.3 0-2.5.3-3.7.8-3.2 1.4-6.9 1.4-10.1 0-4.7-2-10.2.2-12.2 4.9-.4 1.1-.7 2.3-.7 3.6 0 3.9.9 7.7 2.6 11.2l1.4 4.8c.1.4.5.7 1 .7h3v5c0 .6.4 1 1 1h3v2.3l-2.9-.3-.2 2 3.1.3v4l-2.9-.3-.2 2 3.1.3v4l-2.9-.3-.2 2 3.1.3v4l-2.9-.3-.2 2 3.2.4 2 5c.2.4.5.6.9.6h6c.4 0 .8-.2.9-.6l1.5-3.8 3.5.4.2-2-3.1-.3v-4l2.9.3.2-2-3.1-.3v-4l2.9.3.2-2-3.1-.3v-4l2.9.3.2-2-3.1-.3V34h3c.6 0 1-.4 1-1v-5h3c.4 0 .8-.3 1-.7l1.4-4.8C49.1 19 50 15.2 50 11.3 50 6.2 45.8 2 40.7 2zm-6.4 58h-4.6l-1.4-3.4 7.1.8-1.1 2.6zm1.7-4.6l-8-.9v-4l8 .9v4zm0-6l-8-.9v-4l8 .9v4zm0-6l-8-.9v-4l8 .9v4zm0-6l-8-.9V34h8v3.4zm4-5.4H24v-4h16v4zm5.6-10.3c0 .1 0 .1-.1.2L44.3 26H19.7l-1.2-4.2c0-.1 0-.1-.1-.2-1.6-3.2-2.4-6.8-2.4-10.4 0-4 3.3-7.3 7.3-7.3 1 0 2 .2 2.9.6 3.7 1.6 7.9 1.6 11.7 0 3.7-1.6 8 .1 9.6 3.8.4.9.6 1.9.6 2.9-.1 3.7-.9 7.2-2.5 10.5z"/><path class="st0" d="M18 11.8V13h2v-1.2c.1-1.7 1-3.2 2.5-3.9l-1-1.7c-2.1 1-3.4 3.2-3.5 5.6z"/></g></svg>