<svg xmlns="http://www.w3.org/2000/svg" viewBox="0 0 59.71 48.32"><defs><style>.cls-1{fill:#bc9b6a;}</style></defs><title>Varlık 3</title><g id="katman_2" data-name="katman 2"><g id="outline"><path class="cls-1" d="M10.3,20.07c-.73-2.93.77-3.58.94-3.64l-.32-.95-.31-1c-1.2.39-3.22,2.15-2.25,6Z"/><path class="cls-1" d="M36,46.32H2V27.8l1.13-.91a2.63,2.63,0,0,1,2.2-.51,2.59,2.59,0,0,1,1.72,1.3L9.66,41.61a3.32,3.32,0,0,0,6.56-.25l1.55-13.95a1.24,1.24,0,0,1,2.46,0l1.55,14a3.32,3.32,0,0,0,6.56.25L31,27.68l.58-1A17.4,17.4,0,0,0,34,17.79a7.47,7.47,0,0,0-10.81-6.68,9.43,9.43,0,0,1-8.38,0h0A7.47,7.47,0,0,0,4,17.79a17.32,17.32,0,0,0,1.3,6.56,4.6,4.6,0,0,0-3.42,1L.38,26.54a1,1,0,0,0-.38.78v20a1,1,0,0,0,1,1H37a1,1,0,0,0,1-1V29.44H36Zm-24.53-34a5.61,5.61,0,0,1,2.45.57h0a11.42,11.42,0,0,0,10.16,0,5.61,5.61,0,0,1,2.45-.57A5.47,5.47,0,0,1,32,17.79a15.33,15.33,0,0,1-2.19,7.89l-.67,1.12a1,1,0,0,0-.12.33L26.37,41.24a1.32,1.32,0,0,1-2.61-.1L22.21,27.19a3.23,3.23,0,0,0-6.42,0l-1.55,14a1.32,1.32,0,0,1-2.61.1L9,27.13a.7.7,0,0,0-.1-.26h0s0,0,0,0a0,0,0,0,1,0,0l-.67-1.12A15.33,15.33,0,0,1,6,17.79,5.47,5.47,0,0,1,11.47,12.32Z"/><path class="cls-1" d="M54.71,4.61l-2-2L51.29,4l1.3,1.3L49,8.9l-.29-.29-3-3L44.29,7l2.3,2.3L35.29,20.61a1,1,0,0,0,0,1.41l1.8,1.8-4.8,4.79L33.71,30l4.79-4.79L40.29,27a1,1,0,0,0,1.42,0L53,15.73,55.29,18l1.42-1.41-3-3-.3-.29L57,9.73,58.29,11l1.42-1.41-2-2ZM41,24.9l-3.59-3.58L39,19.73,40.29,21l1.42-1.41-1.3-1.29L42,16.73,43.29,18l1.42-1.41-1.3-1.29L45,13.73,46.29,15l1.42-1.41-1.3-1.29L48,10.73l.29.29,3,3,.3.3Zm11-13-1.59-1.58L54,6.73l1.59,1.59Z"/><path class="cls-1" d="M36.87,13.81l4-7a1,1,0,0,0,0-1A1,1,0,0,0,40,5.32H35.39L37,.63,35.05,0l-2,6a1,1,0,0,0,1,1.32h4.28l-3.15,5.5Z"/></g></g></svg>