<svg xmlns="http://www.w3.org/2000/svg" viewBox="0 0 60 60"><defs><style>.cls-1{fill:#bc9b6a;}</style></defs><title>Varlık 5</title><g id="katman_2" data-name="katman 2"><g id="outline"><path class="cls-1" d="M59.27,36l-9.7-2.77a6.37,6.37,0,0,0-4.27.27A37,37,0,0,0,47,22.47,8.48,8.48,0,0,0,39.12,14L39,16a6.48,6.48,0,0,1,6,6.45,35,35,0,0,1-2.23,12.3l-.71,1.88a1.36,1.36,0,0,0-.06.29l-.82,14.87a2.31,2.31,0,0,1-1.38,2L39,33.39v0a31,31,0,0,0,2-10.89A2.48,2.48,0,0,0,38.53,20v2a.47.47,0,0,1,.47.47,28.84,28.84,0,0,1-1.37,8.8,10.54,10.54,0,0,0-15.26,0A28.84,28.84,0,0,1,21,22.47a.48.48,0,0,1,.65-.43A21.22,21.22,0,0,0,30,23.75a22.15,22.15,0,0,0,3.15-.23l-.3-2A19.27,19.27,0,0,1,22.44,20.2a2.51,2.51,0,0,0-1-.2A2.48,2.48,0,0,0,19,22.47a30.73,30.73,0,0,0,2,10.89v0l-.78,20.4a2.31,2.31,0,0,1-1.38-2L18,36.94a1.36,1.36,0,0,0-.06-.29l-.71-1.88A35,35,0,0,1,15,22.47,6.47,6.47,0,0,1,21.47,16a6.57,6.57,0,0,1,2.55.52,15.08,15.08,0,0,0,9.14.9l-.42-2a13.18,13.18,0,0,1-7.94-.77A8.31,8.31,0,0,0,21.47,14,8.48,8.48,0,0,0,13,22.47a37.14,37.14,0,0,0,1.7,11.08,6.31,6.31,0,0,0-4.27-.28L.73,36A1,1,0,0,0,0,37V59a1,1,0,0,0,1,1H59a1,1,0,0,0,1-1V37A1,1,0,0,0,59.27,36ZM22.12,55.87a4.34,4.34,0,0,0,3.29-3.55l2.13-14.2a2.49,2.49,0,0,1,4.92,0l2.13,14.2a4.34,4.34,0,0,0,3.29,3.55L38,58H22ZM30,30a8.43,8.43,0,0,1,7,3.72l.77,20A2.33,2.33,0,0,1,36.57,52l-2.14-14.2a4.48,4.48,0,0,0-8.86,0L23.43,52a2.33,2.33,0,0,1-1.23,1.71l.77-20A8.43,8.43,0,0,1,30,30ZM2,37.75l9-2.56a4.38,4.38,0,0,1,5,2.11l.82,14.62a4.31,4.31,0,0,0,3.29,3.94L20,58H2ZM58,58H40l-.08-2.14a4.31,4.31,0,0,0,3.29-3.94L44,37.3a4.39,4.39,0,0,1,5-2.11l9,2.56Z"/><path class="cls-1" d="M59,3H41V1a1,1,0,0,0-1-1H32a1,1,0,0,0-1,1V11a1,1,0,0,0,1,1h3V27h2V12h3a1,1,0,0,0,1-1V9H59a1,1,0,0,0,1-1V4A1,1,0,0,0,59,3ZM39,10H33V2h6v8ZM58,7H41V5H58Z"/></g></g></svg>