<svg xmlns="http://www.w3.org/2000/svg" viewBox="0 0 60 33"><defs><style>.cls-1{fill:#bc9b6a;}</style></defs><title>Varlık 7</title><g id="katman_2" data-name="katman 2"><g id="outline"><path class="cls-1" d="M58,5.24A5.25,5.25,0,0,0,52.76,0a5.18,5.18,0,0,0-3.71,1.54,1.5,1.5,0,0,1-2.1,0h0a5.23,5.23,0,0,0-8,.66,5.22,5.22,0,0,0-7.95-.65,1.5,1.5,0,0,1-2.1,0h0A5.23,5.23,0,0,0,21,2.19a5.22,5.22,0,0,0-7.95-.65,1.5,1.5,0,0,1-2.1,0h0A5.25,5.25,0,0,0,2,5.24c0,.93,0,1.84.14,2.76H0v2H2.38a28.92,28.92,0,0,0,.93,4c-.11,0-.21,0-.31,0A3.39,3.39,0,0,0,.17,15.45,1,1,0,0,0,0,16V32a1,1,0,0,0,1,1H59a1,1,0,0,0,1-1V16a1,1,0,0,0-.17-.55A3.39,3.39,0,0,0,57,13.93c-.1,0-.2,0-.31,0a28.92,28.92,0,0,0,.93-4H60V8H57.86C58,7.08,58,6.17,58,5.24ZM43.24,2a3.25,3.25,0,0,1,2.3,1,3.48,3.48,0,0,0,4.92,0A3.25,3.25,0,0,1,56,5.24c0,.93-.06,1.84-.15,2.76H51V7a1,1,0,0,0-1-1H46a1,1,0,0,0-1,1V8H40.15C40.06,7.08,40,6.17,40,5.24A3.24,3.24,0,0,1,43.24,2ZM49,8v2H47V8Zm-9.44,6.83.07.23a3.81,3.81,0,0,0-1.26,0l.07-.23c.22-.63.39-1.28.56-1.92C39.17,13.55,39.34,14.2,39.56,14.83ZM21,12.91c.17.64.34,1.29.56,1.92l.13.41a4,4,0,0,0-1.38,0l.13-.41C20.66,14.2,20.83,13.55,21,12.91Zm2.45,1.29a28,28,0,0,1-1-4.2H27v1a1,1,0,0,0,1,1h4a1,1,0,0,0,1-1V10h4.59a28,28,0,0,1-1,4.2l-.5,1.48a2,2,0,0,0,0,.24l-.87,10.51a.63.63,0,0,1-1.25,0l-.73-9.51a3.16,3.16,0,0,0-6.31,0c-.21,2.53-.58,7.14-.74,9.52a.61.61,0,0,1-.61.57.63.63,0,0,1-.62-.57L24,15.92a2,2,0,0,0-.05-.24ZM29,10V8h2v2ZM25.24,2a3.25,3.25,0,0,1,2.3,1,3.48,3.48,0,0,0,4.92,0A3.25,3.25,0,0,1,38,5.24c0,.93-.06,1.84-.15,2.76H33V7a1,1,0,0,0-1-1H28a1,1,0,0,0-1,1V8H22.15C22.06,7.08,22,6.17,22,5.24A3.24,3.24,0,0,1,25.24,2ZM4,5.24A3.25,3.25,0,0,1,9.54,3a3.48,3.48,0,0,0,4.92,0A3.25,3.25,0,0,1,20,5.24c0,.93-.06,1.84-.15,2.76H15V7a1,1,0,0,0-1-1H10A1,1,0,0,0,9,7V8H4.15C4.06,7.08,4,6.17,4,5.24ZM13,8v2H11V8ZM9,10v1a1,1,0,0,0,1,1h4a1,1,0,0,0,1-1V10h4.59a28,28,0,0,1-1,4.2l-.5,1.48a2,2,0,0,0-.05.24l-.87,10.51a.63.63,0,0,1-1.25,0l-.73-9.51a3.16,3.16,0,0,0-6.31,0c-.21,2.53-.58,7.14-.74,9.52a.61.61,0,0,1-.61.57.63.63,0,0,1-.62-.57L6,15.92a2,2,0,0,0,0-.24l-.5-1.48a28,28,0,0,1-1-4.2Zm49,6.35V31H2V16.35a1.45,1.45,0,0,1,2,0L4.88,26.6a2.62,2.62,0,0,0,5.22,0c.15-2.37.53-7,.73-9.49a1.17,1.17,0,0,1,2.33,0l.73,9.5a2.62,2.62,0,0,0,5.23,0l.75-9a1.83,1.83,0,0,1,2.26,0l.75,9a2.62,2.62,0,0,0,5.22,0c.15-2.37.53-7,.73-9.49a1.17,1.17,0,0,1,2.33,0l.73,9.5a2.62,2.62,0,0,0,5.23,0l.77-9.21a1.8,1.8,0,0,1,2.22,0l.77,9.21a2.62,2.62,0,0,0,5.22,0c.15-2.37.53-7,.73-9.49a1.17,1.17,0,0,1,2.33,0l.73,9.5a2.62,2.62,0,0,0,5.23,0L56,16.39A1.45,1.45,0,0,1,58,16.35ZM54.55,14.2l-.5,1.48a2,2,0,0,0,0,.24l-.87,10.51a.63.63,0,0,1-1.25,0l-.73-9.51a3.16,3.16,0,0,0-6.31,0c-.21,2.53-.58,7.14-.74,9.52a.61.61,0,0,1-.61.57.63.63,0,0,1-.62-.57L42,15.92a2,2,0,0,0,0-.24l-.5-1.48a28,28,0,0,1-1-4.2H45v1a1,1,0,0,0,1,1h4a1,1,0,0,0,1-1V10h4.59A28,28,0,0,1,54.55,14.2Z"/></g></g></svg>