<svg xmlns="http://www.w3.org/2000/svg" viewBox="0 0 60 59.71"><defs><style>.cls-1{fill:#bc9b6a;}</style></defs><title>Varlık 6</title><g id="katman_2" data-name="katman 2"><g id="outline"><path class="cls-1" d="M16,25.31v1.4h2v-1.4a5.75,5.75,0,0,1,2.55-4.77l-1.1-1.66A7.7,7.7,0,0,0,16,25.31Z"/><path class="cls-1" d="M24.68,21.76a1,1,0,0,0-.65.72,1,1,0,0,0,.26.93l12,12a1,1,0,0,0,.71.3.91.91,0,0,0,.23,0A1,1,0,0,0,38,35l3.92-11.77L59.71,5.41,58.29,4,41,21.29l-2.59-2.58,17.3-17.3L54.29,0,36.46,17.83Zm11.88,11.1-2.27-2.28,3.54-5.32-1.66-1.11-3.33,5-2.27-2.28,5-3.32-1.1-1.66-5.32,3.54-2.28-2.28,9.88-3.29L39.86,23Z"/><path class="cls-1" d="M1,59.71H59a1,1,0,0,0,1-1v-22a1,1,0,0,0-.73-1L49.57,33a6.41,6.41,0,0,0-3.66.07A25.3,25.3,0,0,0,48,23a10.11,10.11,0,0,0-.11-1.45l-2,.31A7.3,7.3,0,0,1,46,23a23.28,23.28,0,0,1-2.45,10.36l-1.44,2.9a.83.83,0,0,0-.1.34L40.29,52.06a1.84,1.84,0,0,1-3.66.07l-2.2-14.6a4.48,4.48,0,0,0-8.86,0l-2.2,14.6a1.84,1.84,0,0,1-3.66-.07L18,36.6a.83.83,0,0,0-.1-.34l-1.44-2.9A23.28,23.28,0,0,1,14,23a7.3,7.3,0,0,1,10.17-6.7,14.93,14.93,0,0,0,11.66,0L35,14.46a12.87,12.87,0,0,1-10.08,0A9.3,9.3,0,0,0,12,23a25.3,25.3,0,0,0,2.09,10A6.41,6.41,0,0,0,10.43,33L.73,35.75a1,1,0,0,0-.73,1v22A1,1,0,0,0,1,59.71ZM2,37.46l9-2.56A4.38,4.38,0,0,1,16,37l1.69,15.25a3.85,3.85,0,0,0,7.63.15l2.19-14.61a2.49,2.49,0,0,1,4.92,0l2.19,14.61a3.85,3.85,0,0,0,7.63-.15L44,37A4.38,4.38,0,0,1,49,34.9l9,2.56V57.71H2Z"/><path class="cls-1" d="M49.25,30.52a1,1,0,0,0,.62.46l9.42,2.69.54-1.92-8.52-2.44A29.25,29.25,0,0,0,52,23a13.2,13.2,0,0,0-1.3-5.73l-1.8.87A11.15,11.15,0,0,1,50,23a27.18,27.18,0,0,1-.86,6.76A1.06,1.06,0,0,0,49.25,30.52Z"/><path class="cls-1" d="M21.3,11.71a11.18,11.18,0,0,1,4.45.91,10.82,10.82,0,0,0,8.5,0,11.42,11.42,0,0,1,5.65-.85l.2-2a13.31,13.31,0,0,0-6.64,1,8.76,8.76,0,0,1-6.92,0A13.31,13.31,0,0,0,8,23a29.25,29.25,0,0,0,.69,6.31L.17,31.75l.54,1.92,9.17-2.62.25-.07a1,1,0,0,0,.62-.46,1.06,1.06,0,0,0,.11-.76A27.18,27.18,0,0,1,10,23,11.31,11.31,0,0,1,21.3,11.71Z"/><path class="cls-1" d="M9,4.54a1,1,0,0,0-2,0A3.87,3.87,0,0,1,3.84,7.72a1,1,0,0,0-.84,1,1,1,0,0,0,.84,1A3.87,3.87,0,0,1,7,12.87a1,1,0,0,0,2,0,3.87,3.87,0,0,1,3.17-3.18,1,1,0,0,0,.84-1,1,1,0,0,0-.84-1A3.87,3.87,0,0,1,9,4.54ZM8,10.13A5.85,5.85,0,0,0,6.57,8.71,5.89,5.89,0,0,0,8,7.28,5.89,5.89,0,0,0,9.43,8.71,5.85,5.85,0,0,0,8,10.13Z"/></g></g></svg>